<svg width="84" height="84" viewBox="0 0 84 84" fill="none" xmlns="http://www.w3.org/2000/svg">
<path d="M36.4306 83.9887C35.1155 83.7216 33.8416 83.3723 32.732 82.5299C30.7183 81.0093 29.7526 78.9546 29.6909 76.4683C29.6704 75.6669 29.732 74.8861 29.6704 74.0848C29.6498 73.8382 29.4444 73.4683 29.2389 73.3656C26.1978 71.9067 24.8006 69.4821 24.7595 66.1534C24.739 63.7698 24.8006 61.3863 24.5129 59.0233C24.1225 55.5919 22.6431 52.5303 20.4034 49.8796C18.1021 47.1468 16.0884 44.2495 14.6911 40.9414C10.0474 30.01 12.8008 16.5718 21.3691 8.35277C27.328 2.64052 34.4169 -0.195058 42.6565 0.010419C56.855 0.339182 68.937 10.8801 71.115 24.9347C72.4506 33.4826 70.3959 41.2701 64.9918 48.0714C63.0193 50.5577 60.985 53.044 60.1631 56.1672C59.67 58.0165 59.4234 59.9685 59.2385 61.8794C59.0946 63.4 59.2385 64.941 59.1974 66.4616C59.1152 69.6259 57.6769 71.9273 54.8002 73.2834C54.3687 73.4889 54.2865 73.7149 54.266 74.1464C54.2043 75.5642 54.3276 77.0231 53.9783 78.3792C53.1769 81.5025 51.0605 83.3312 47.8551 83.8655C47.7523 83.886 47.6496 83.9476 47.5469 83.9682C43.8483 83.9887 40.1497 83.9887 36.4306 83.9887ZM32.1567 59.1672C32.1567 58.7562 32.1567 58.4274 32.1567 58.0987C32.1567 51.2974 32.1361 44.4756 32.1772 37.6743C32.1772 36.9346 32.3621 36.1332 32.6704 35.4757C34.9306 30.8319 37.273 26.2292 39.5538 21.6266C40.0675 20.5992 40.7661 19.8595 41.9784 19.8595C43.1908 19.8595 43.8894 20.5992 44.4031 21.6266C46.7044 26.2498 49.0263 30.8525 51.2865 35.4757C51.6153 36.1332 51.7797 36.9346 51.7797 37.6743C51.8208 44.5167 51.8002 51.3385 51.8002 58.1809C51.8002 58.5096 51.8002 58.8178 51.8002 59.1672C52.7249 59.1672 53.5468 59.1672 54.2249 59.1672C54.7591 57.2357 55.1906 55.3864 55.8276 53.5782C56.9577 50.3522 58.9919 47.681 61.1083 45.0715C67.6836 36.9551 68.3617 25.4895 62.8549 16.6335C57.3481 7.79798 46.9304 3.35969 36.6566 5.4761C25.7869 7.7158 17.5062 17.8252 17.3623 28.9826C17.2801 35.3319 19.2322 40.9619 23.3828 45.7906C25.3965 48.1331 27.1225 50.6604 28.1293 53.5782C28.7663 55.3864 29.1772 57.2768 29.6909 59.1877C30.4512 59.1672 31.2526 59.1672 32.1567 59.1672ZM46.8893 40.9825C43.5812 42.0098 40.3552 41.9893 37.1086 41.003C37.1086 47.1057 37.1086 53.1261 37.1086 59.1672C40.3963 59.1672 43.6223 59.1672 46.8893 59.1672C46.8893 53.1056 46.8893 47.0851 46.8893 40.9825ZM29.6909 64.1602C29.6909 64.8794 29.6909 65.4958 29.6909 66.1328C29.6909 68.1054 30.6156 69.0506 32.5882 69.0506C35.7936 69.0506 38.9785 69.0506 42.1839 69.0506C45.3483 69.0506 48.5126 69.0506 51.6975 69.0506C53.0126 69.0506 54.0399 68.352 54.2043 67.1602C54.3481 66.1945 54.2249 65.1671 54.2249 64.1602C46.0469 64.1602 37.9306 64.1602 29.6909 64.1602ZM34.6224 74.0026C34.6224 74.9683 34.5813 75.8724 34.6429 76.756C34.7251 78.0299 35.7114 79.0162 37.0059 79.0368C40.3346 79.0778 43.6634 79.0778 46.9921 79.0368C48.1838 79.0162 49.1907 78.1738 49.3345 77.0231C49.4373 76.0368 49.3551 75.03 49.3551 74.0026C44.4236 74.0026 39.5744 74.0026 34.6224 74.0026ZM46.1085 36.0305C44.7318 33.2976 43.3962 30.6264 41.999 27.8114C40.5812 30.647 39.2456 33.3182 37.8895 36.0099C40.6429 37.099 43.314 37.0784 46.1085 36.0305Z" fill="#272E3A"/>
<path d="M83.9986 32.8049C83.3411 34.2021 82.2315 34.7158 80.6904 34.6131C79.3959 34.5309 78.0809 34.6131 76.7658 34.5926C75.2453 34.572 74.1562 33.5241 74.1562 32.1268C74.1562 30.7296 75.2453 29.7022 76.7658 29.6817C78.0809 29.6611 79.3959 29.7433 80.6904 29.6611C82.2315 29.5584 83.3411 30.0721 83.978 31.4899C83.9986 31.9214 83.9986 32.3734 83.9986 32.8049Z" fill="#272E3A"/>
<path d="M3.47831 13.1406C3.80708 13.3256 4.48515 13.531 4.95774 13.9625C6.12896 15.031 7.23853 16.1611 8.32756 17.3118C9.35494 18.3803 9.35495 19.8597 8.3892 20.846C7.42346 21.8117 5.92348 21.8117 4.855 20.7844C3.68379 19.6542 2.51257 18.483 1.38245 17.2913C0.663281 16.531 0.519445 15.6063 0.930398 14.6406C1.3619 13.6954 2.14272 13.2434 3.47831 13.1406Z" fill="#272E3A"/>
<path d="M83.3022 15.9567C83.1173 16.2855 82.9118 16.9635 82.4803 17.4361C81.4118 18.6073 80.2817 19.7169 79.131 20.8059C78.0626 21.8333 76.5626 21.8128 75.5968 20.847C74.6517 19.8813 74.6311 18.4224 75.6174 17.3745C76.7475 16.1827 77.9187 15.0321 79.0899 13.9019C79.8708 13.1417 80.816 12.9773 81.8228 13.4293C82.768 13.8197 83.22 14.6006 83.3022 15.9567Z" fill="#272E3A"/>
<path d="M3.43054 51.0934C2.19768 51.0523 1.43741 50.6208 1.00591 49.7372C0.574412 48.8948 0.553863 47.9701 1.19084 47.2715C2.50589 45.8332 3.86204 44.4565 5.30037 43.162C6.16338 42.4017 7.54007 42.6072 8.36198 43.4085C9.20443 44.2304 9.43045 45.6688 8.64964 46.5318C7.35514 47.9701 5.9579 49.3263 4.54011 50.6413C4.21135 50.9495 3.65656 51.0112 3.43054 51.0934Z" fill="#272E3A"/>
<path d="M83.2788 48.3824C83.2172 49.6358 82.7857 50.396 81.9021 50.8275C81.0186 51.259 80.0939 51.2385 79.3542 50.581C77.9981 49.3276 76.6625 48.0125 75.4091 46.6358C74.5461 45.6906 74.7104 44.2317 75.6351 43.3687C76.5186 42.5263 77.9159 42.403 78.8405 43.2454C80.1761 44.4578 81.4295 45.7523 82.6624 47.0673C83.0322 47.4783 83.1555 48.0947 83.2788 48.3824Z" fill="#272E3A"/>
<path d="M4.87009 34.5933C4.06873 34.5933 3.28792 34.6138 2.48656 34.5933C1.06877 34.5522 0.020839 33.5042 0.000291357 32.1686C-0.0202563 30.7919 1.04822 29.7235 2.50711 29.7029C4.10983 29.6824 5.73309 29.6824 7.35636 29.7029C8.77415 29.7235 9.82208 30.7919 9.84263 32.1275C9.86318 33.4631 8.81524 34.5522 7.418 34.5933C6.555 34.6344 5.71254 34.5933 4.87009 34.5933Z" fill="#272E3A"/>
</svg>
