<svg width="84" height="85" viewBox="0 0 84 85" fill="none" xmlns="http://www.w3.org/2000/svg">
<path d="M9.24685 60.8863C9.93223 57.337 8.43907 54.7178 5.79543 52.5392C4.86526 51.7559 4.033 50.8503 3.20075 49.9446C-1.10741 45.3916 -1.05844 38.4888 3.29866 33.9848C4.57153 32.663 5.84439 31.3657 7.19069 30.0928C8.63489 28.722 9.32028 27.1065 9.27133 25.1237C9.22237 23.1655 9.17341 21.2072 9.39372 19.2735C10.0301 13.5701 14.8768 9.31088 20.6292 9.23744C22.2692 9.21297 23.9337 9.21297 25.5738 9.23744C27.2138 9.26192 28.609 8.64997 29.7595 7.49949C31.1058 6.1532 32.4276 4.8069 33.7739 3.48508C38.4982 -1.16576 45.5479 -1.16577 50.2722 3.50955C51.4471 4.66003 52.6466 5.8105 53.7481 7.00993C55.2168 8.64997 57.0037 9.31087 59.2067 9.26192C61.3853 9.21296 63.6372 9.16401 65.7668 9.58014C71.0296 10.6082 74.6769 15.2101 74.7748 20.5708C74.7993 22.2108 74.7993 23.8754 74.7748 25.5154C74.7503 27.2044 75.3623 28.5996 76.5372 29.7746C77.859 31.0719 79.1809 32.3938 80.4782 33.7156C85.178 38.4888 85.178 45.4896 80.4537 50.2873C79.597 51.1685 78.7892 52.0986 77.859 52.8575C75.4602 54.8157 74.4811 57.239 74.7258 60.3478C74.8727 62.1592 74.7748 64.044 74.4321 65.8064C73.3795 70.9958 68.7776 74.6675 63.4659 74.7654C61.8259 74.7899 60.1614 74.7899 58.5213 74.7654C56.8078 74.7409 55.3881 75.3529 54.1887 76.5768C52.9403 77.8496 51.6919 79.098 50.4435 80.3464C45.5234 85.242 38.5472 85.2665 33.6271 80.3709C32.5011 79.2449 31.3261 78.1679 30.2736 76.9929C28.8293 75.4018 27.0914 74.692 24.9128 74.7409C22.6853 74.7899 20.4089 74.8388 18.2548 74.4227C13.0165 73.3946 9.34476 68.7682 9.24685 63.432C9.22237 62.5998 9.24685 61.743 9.24685 60.8863ZM68.8756 23.6795C68.9 23.6795 68.9245 23.6795 68.949 23.6795C68.949 22.7249 68.9735 21.7947 68.949 20.8401C68.9 17.5355 66.5012 15.1611 63.1722 15.1122C61.5811 15.0877 59.99 15.1122 58.3989 15.1122C55.1433 15.1122 52.4018 13.9372 50.1008 11.6363C48.779 10.3145 47.4817 8.99266 46.1354 7.69532C43.6141 5.22303 40.3341 5.2475 37.8373 7.7198C36.4665 9.06609 35.1202 10.4613 33.7495 11.8076C32.036 13.4966 29.9798 14.6961 27.581 14.9408C25.5248 15.1611 23.4442 15.1122 21.3635 15.1122C17.3491 15.1367 15.0971 17.3887 15.0971 21.4275C15.0971 22.7983 15.0971 24.1691 15.0971 25.5399C15.1216 28.8199 13.9467 31.6105 11.6212 33.9359C10.2994 35.2577 8.97759 36.555 7.68025 37.9013C5.20796 40.3981 5.23244 43.7026 7.70473 46.1994C9.02655 47.5457 10.3728 48.8675 11.7191 50.2138C13.4816 51.9762 14.681 54.0569 14.9258 56.5537C15.1461 58.6343 15.0726 60.7639 15.0971 62.869C15.1216 66.6386 17.447 68.9641 21.2411 68.9641C22.6853 68.9641 24.1051 68.9641 25.5493 68.9641C28.8049 68.9396 31.5709 70.0901 33.8718 72.3665C35.1937 73.6883 36.491 75.0102 37.8373 76.3075C40.383 78.8288 43.6631 78.8532 46.2088 76.332C47.5796 74.9857 48.9259 73.6149 50.2967 72.2686C52.0101 70.5552 54.0663 69.3802 56.4652 69.1354C58.6682 68.9151 60.9202 68.9885 63.1477 68.9396C66.5257 68.8906 68.9245 66.5163 68.949 63.1628C68.9735 61.5962 68.9735 60.054 68.949 58.4874C68.9245 55.2074 70.0995 52.4169 72.4249 50.0914C73.7222 48.7941 75.0196 47.4968 76.3169 46.1994C78.8626 43.6292 78.8626 40.3491 76.2924 37.7545C74.9706 36.4326 73.6488 35.1353 72.3515 33.8135C70.6135 32.0755 69.4875 30.0194 69.1448 27.5716C68.9245 26.2987 68.949 24.9769 68.8756 23.6795Z" fill="#272E3A"/>
<path d="M38.08 45.7314C39.6221 44.1893 41.0418 42.7451 42.486 41.3008C45.4968 38.29 48.4832 35.3037 51.494 32.3174C52.571 31.2403 53.9663 31.069 55.1657 31.7789C56.2672 32.4153 56.8302 33.7371 56.463 35.01C56.3162 35.5485 55.9735 36.087 55.5818 36.4787C50.5149 41.5946 45.4234 46.686 40.3075 51.753C38.9122 53.1483 37.2477 53.1238 35.8769 51.753C33.3802 49.2807 30.9079 46.8084 28.4356 44.3117C27.1627 43.0388 27.0893 41.2519 28.2642 40.0525C29.4637 38.8286 31.275 38.8775 32.5724 40.1749C34.4082 41.9862 36.1951 43.8221 38.08 45.7314Z" fill="#272E3A"/>
</svg>
