<svg width="64" height="86" viewBox="0 0 64 86" fill="none" xmlns="http://www.w3.org/2000/svg">
<path d="M32.866 0.0238012C35.0794 0.713994 36.7453 2.21338 38.4827 3.61756C40.1725 4.99795 42.0527 5.66434 44.2423 5.54534C45.7178 5.47394 47.1696 5.47394 48.6452 5.49774C51.0728 5.56914 52.6436 6.71153 53.4766 8.99631C53.9764 10.4243 54.4286 11.8999 54.8331 13.3517C55.3805 15.2794 56.4515 16.7788 58.1175 17.8736C59.3789 18.6828 60.5927 19.5634 61.7827 20.4678C63.8056 22.0148 64.4006 23.8235 63.6866 26.2511C63.2583 27.7029 62.7585 29.1547 62.2349 30.5827C61.5447 32.4628 61.5685 34.2954 62.2111 36.1994C62.8061 37.913 63.4011 39.6504 63.8532 41.4115C64.3054 43.1489 63.6867 44.6721 62.3539 45.8145C61.1877 46.7903 59.9739 47.7185 58.6649 48.5277C56.5467 49.8367 55.214 51.6454 54.619 54.073C54.262 55.5486 53.667 56.9528 53.2386 58.4284C53.1434 58.7616 53.2386 59.19 53.3576 59.5232C55.4519 64.9257 57.5701 70.3044 59.6645 75.707C60.3785 77.5396 59.6169 78.6343 57.6653 78.4202C55.0474 78.1584 52.4294 77.8252 49.8114 77.4682C48.9308 77.3492 48.3358 77.5158 47.7646 78.2535C46.0986 80.3241 44.3375 82.3233 42.6001 84.3463C41.4101 85.7267 40.0059 85.4887 39.3395 83.7989C37.2689 78.5153 35.1746 73.2318 33.1754 67.9245C32.8184 66.9725 32.3662 66.5679 31.2952 66.8773C30.7716 68.1863 30.2242 69.5666 29.6768 70.9708C28.0108 75.231 26.3449 79.4911 24.6789 83.7275C23.9649 85.5363 22.5845 85.7505 21.3469 84.2987C19.6095 82.2757 17.8722 80.2765 16.1824 78.2059C15.635 77.5396 15.0876 77.373 14.2546 77.4682C11.589 77.8252 8.92346 78.1583 6.25789 78.4439C4.42531 78.6343 3.61611 77.5158 4.2825 75.8022C6.40068 70.3758 8.51886 64.9733 10.637 59.5469C10.8512 59.0233 10.8274 58.595 10.6132 58.0476C10.0658 56.572 9.58985 55.0488 9.18525 53.5494C8.63786 51.5502 7.51927 50.0271 5.78189 48.9085C4.5443 48.0993 3.35432 47.2663 2.18813 46.3619C0.212751 44.8863 -0.42984 42.9347 0.307951 40.5548C0.760146 39.1268 1.21234 37.6988 1.73594 36.2946C2.44993 34.3906 2.42612 32.5342 1.75973 30.6065C1.16474 28.9405 0.617347 27.2507 0.165152 25.5371C-0.382242 23.4665 0.47455 21.8244 2.09293 20.5868C3.30672 19.6348 4.5919 18.7542 5.90089 17.8974C7.59067 16.8026 8.61406 15.2794 9.20905 13.3755C9.73265 11.6381 10.28 9.87689 10.9702 8.18711C11.7318 6.30693 13.3502 5.56914 15.3018 5.49774C16.8964 5.45014 18.5147 5.47394 20.1331 5.52154C22.0847 5.59294 23.7983 5.02174 25.2977 3.78416C25.7261 3.42716 26.1783 3.11777 26.6067 2.76077C28.0108 1.61838 29.4388 0.571194 31.2 0C31.7712 0.0237997 32.3186 0.0238012 32.866 0.0238012ZM18.1815 8.82971C17.6818 8.82971 16.706 8.8535 15.7302 8.82971C14.6592 8.80591 13.9928 9.2819 13.6834 10.2815C13.374 11.3049 12.9932 12.3283 12.7314 13.3755C11.9222 16.8026 10.042 19.3968 7.04327 21.2294C5.99609 21.872 5.0441 22.6098 4.06831 23.3475C3.49711 23.7997 3.25912 24.3947 3.52092 25.1087C3.94931 26.3701 4.33011 27.6315 4.8061 28.8929C5.90089 31.7727 6.01989 34.6762 4.9251 37.5798C4.4967 38.746 4.06831 39.9122 3.68751 41.1022C3.23532 42.5301 3.37812 42.9823 4.5681 43.8867C5.37729 44.5055 6.23408 45.1005 7.11467 45.6241C10.0896 47.4329 11.946 50.0271 12.7552 53.4066C13.0408 54.549 13.4454 55.6914 13.8262 56.81C14.0642 57.5478 14.5878 57.9524 15.3732 57.9524C16.6822 57.9524 17.9912 58 19.2763 57.9286C22.6559 57.7144 25.6071 58.7378 28.1774 60.9511C29.0818 61.7127 30.0814 62.4029 31.0572 63.0693C31.7236 63.5215 32.4138 63.5215 33.0802 63.0693C33.9846 62.4267 34.9366 61.8317 35.7458 61.0939C38.4589 58.714 41.5529 57.643 45.1705 57.9286C46.3366 58.0238 47.5028 57.9524 48.669 57.9762C49.5258 57.9762 50.0732 57.524 50.335 56.7386C50.692 55.6676 51.0966 54.5966 51.3584 53.5018C52.1676 50.0271 54.0954 47.3853 57.1655 45.5527C58.1651 44.9577 59.0695 44.2199 59.9977 43.5297C60.5927 43.0775 60.8307 42.4587 60.5689 41.6971C60.1405 40.4596 59.7835 39.222 59.3075 38.0082C58.1175 34.938 58.1175 31.9155 59.3313 28.8453C59.7359 27.8219 60.0929 26.7747 60.4261 25.7037C60.8783 24.2995 60.7355 23.8711 59.5693 22.9906C58.7363 22.348 57.8557 21.753 56.9751 21.2056C54.024 19.4206 52.1676 16.8502 51.3822 13.4945C51.1442 12.4711 50.8348 11.4715 50.4778 10.4719C50.0018 9.1391 49.6448 8.87731 48.2168 8.85351C47.0506 8.85351 45.8844 8.8535 44.7183 8.9011C42.1955 8.9963 39.7917 8.61551 37.6735 7.13992C36.6978 6.44973 35.7696 5.71194 34.8176 4.99795C32.1282 2.92737 32.033 2.95117 29.3198 4.99795C27.9632 6.02133 26.6067 7.04472 25.1549 7.87772C23.1319 8.9963 20.8947 8.9725 18.1815 8.82971ZM22.4417 80.3241C24.3695 75.3976 26.2259 70.6376 28.106 65.8777C28.2726 65.4493 28.1774 65.2351 27.8442 64.9733C27.0113 64.3545 26.1783 63.7595 25.4167 63.0931C23.7983 61.7365 21.9419 61.2367 19.8713 61.2843C17.8246 61.3081 15.8016 61.2843 13.6358 61.2843C11.9222 65.6397 10.161 70.1616 8.35226 74.8026C10.7322 74.517 12.9456 74.3028 15.1114 73.9696C16.3014 73.803 17.182 74.0172 17.9436 75.0168C19.3477 76.8018 20.8709 78.4915 22.4417 80.3241ZM41.6481 80.3241C43.3141 78.3963 44.8611 76.5876 46.3842 74.755C46.9316 74.0886 47.5742 73.803 48.431 73.922C49.5734 74.0886 50.7396 74.2076 51.9058 74.3504C53.1434 74.4932 54.4048 74.636 55.7613 74.7788C53.9288 70.114 52.1676 65.6159 50.4064 61.1177C49.9304 61.1891 49.5258 61.3081 49.1212 61.3081C47.3838 61.3319 45.6226 61.3081 43.8853 61.2843C42.1717 61.2605 40.6009 61.6651 39.2205 62.7123C38.2447 63.4501 37.2927 64.2117 36.317 64.9257C35.8886 65.2351 35.8648 65.5207 36.0552 65.9729C36.6502 67.4009 37.1975 68.8526 37.7449 70.3044C39.0063 73.6126 40.3153 76.897 41.6481 80.3241Z" fill="#272E3A"/>
<path d="M53.9496 33.4395C53.902 45.5297 44.0489 55.359 32.0062 55.3352C19.8921 55.3114 9.99144 45.3632 10.1104 33.3919C10.2294 21.2064 20.0587 11.4485 32.1014 11.5199C44.1679 11.5913 53.9971 21.4444 53.9496 33.4395ZM13.5138 33.3681C13.4186 43.5068 21.6533 51.8367 31.8634 51.9557C42.0735 52.0747 50.4034 43.8638 50.57 33.5347C50.7128 23.3722 42.3591 14.9471 32.0776 14.8757C21.9389 14.7805 13.609 23.0866 13.5138 33.3681Z" fill="#272E3A"/>
<path d="M23.5386 43.3181C23.8718 41.3666 24.205 39.2722 24.5858 37.2016C24.681 36.678 24.5382 36.3924 24.1812 36.0592C22.8246 34.7502 21.468 33.4175 20.1114 32.1323C19.4926 31.5373 19.0642 30.8709 19.3974 29.9903C19.7068 29.1573 20.4446 28.9431 21.2538 28.8241C23.1816 28.5623 25.1094 28.3005 27.0134 27.9673C27.299 27.9197 27.6084 27.6103 27.7512 27.3485C28.6317 25.6587 29.4647 23.9452 30.2977 22.2078C30.6547 21.47 31.1307 20.875 32.0351 20.875C32.9157 20.875 33.3917 21.47 33.7487 22.2316C34.5817 23.9452 35.4147 25.6825 36.3191 27.3723C36.4857 27.6817 36.8903 27.9673 37.2234 28.0149C39.1274 28.3481 41.0552 28.5861 42.983 28.8717C43.7446 28.9907 44.3872 29.2525 44.6728 30.0379C44.9584 30.8471 44.649 31.4897 44.054 32.0609C42.626 33.4175 41.2218 34.7978 39.8414 36.202C39.6272 36.4162 39.4844 36.8684 39.532 37.2016C39.8176 39.0818 40.1508 40.9858 40.484 42.866C40.6268 43.6751 40.6268 44.4367 39.9128 44.9841C39.1988 45.5315 38.461 45.3411 37.747 44.9603C36.0811 44.0797 34.3913 43.223 32.7491 42.3186C32.2493 42.033 31.8685 42.0568 31.3687 42.3424C29.6075 43.2943 27.8464 44.2225 26.0614 45.1269C24.7524 45.6743 23.5148 44.8413 23.5386 43.3181ZM32.0351 26.3489C31.4163 27.6103 30.8451 28.6813 30.3453 29.7761C29.9407 30.6329 29.3457 31.1089 28.3938 31.2041C27.18 31.3231 25.9662 31.5611 24.8238 31.7277C25.7282 32.6797 26.5612 33.6317 27.4656 34.536C28.0367 35.1072 28.2747 35.726 28.1082 36.559C27.8464 37.8204 27.6798 39.0818 27.4418 40.5098C28.6793 39.8434 29.7741 39.3198 30.8213 38.7248C31.6543 38.2488 32.4159 38.2488 33.2489 38.7248C34.2961 39.3198 35.3909 39.8672 36.6047 40.486C36.3905 39.1532 36.2477 37.987 35.9859 36.8208C35.7241 35.726 36.0811 34.9644 36.8665 34.2504C37.6994 33.4651 38.461 32.5845 39.2702 31.7039C38.0326 31.5135 36.7713 31.3231 35.5337 31.1565C34.7245 31.0613 34.1533 30.6805 33.7963 29.9189C33.2965 28.8003 32.7015 27.6579 32.0351 26.3489Z" fill="#272E3A"/>
</svg>
